name Walk9.mot
datacolumns 19
datarows 20
range 2.04300000 2.06200000
endheader

                time	   L_ground_force_vx	   L_ground_force_vy	   L_ground_force_vz	   L_ground_force_px	   L_ground_force_py	   L_ground_force_pz	   R_ground_force_vx	   R_ground_force_vy	   R_ground_force_vz	   R_ground_force_px	   R_ground_force_py	   R_ground_force_pz	   L_ground_torque_x	   L_ground_torque_y	   L_ground_torque_z	   R_ground_torque_x	   R_ground_torque_y	   R_ground_torque_z	
          2.04300000	          0.00000000	          0.00000000	          0.00000000	          0.00000000	          0.00000000	          0.00000000	        -37.21656256	        862.89697027	        -38.03069845	          0.56577687	          0.00000000	          0.09633811	          0.00000000	          0.00000000	          0.00000000	          0.00000000	          1.34827268	          0.00000000	
          2.04400000	          0.00000000	          0.00000000	          0.00000000	          0.00000000	          0.00000000	          0.00000000	        -36.84623953	        860.82299413	        -37.82355709	          0.56602500	          0.00000000	          0.09635103	          0.00000000	          0.00000000	          0.00000000	          0.00000000	          1.29242602	          0.00000000	
          2.04500000	          0.00000000	          0.00000000	          0.00000000	          0.00000000	          0.00000000	          0.00000000	        -36.47878229	        858.80346969	        -37.61636086	          0.56628541	          0.00000000	          0.09636691	          0.00000000	          0.00000000	          0.00000000	          0.00000000	          1.24695509	          0.00000000	
          2.04600000	          0.00000000	          0.00000000	          0.00000000	          0.00000000	          0.00000000	          0.00000000	        -36.10622878	        856.77318523	        -37.41066985	          0.56655122	          0.00000000	          0.09638942	          0.00000000	          0.00000000	          0.00000000	          0.00000000	          1.20767318	          0.00000000	
          2.04700000	          0.00000000	          0.00000000	          0.00000000	          0.00000000	          0.00000000	          0.00000000	        -35.71511704	        854.69755418	        -37.21011226	          0.56682142	          0.00000000	          0.09641695	          0.00000000	          0.00000000	          0.00000000	          0.00000000	          1.17051690	          0.00000000	
          2.04800000	          0.00000000	          0.00000000	          0.00000000	          0.00000000	          0.00000000	          0.00000000	        -35.30081676	        852.60257939	        -37.02434732	          0.56709460	          0.00000000	          0.09644596	          0.00000000	          0.00000000	          0.00000000	          0.00000000	          1.13315420	          0.00000000	
          2.04900000	          0.00000000	          0.00000000	          0.00000000	          0.00000000	          0.00000000	          0.00000000	        -34.87704230	        850.55866743	        -36.86610654	          0.56735987	          0.00000000	          0.09648015	          0.00000000	          0.00000000	          0.00000000	          0.00000000	          1.09140741	          0.00000000	
          2.05000000	          0.00000000	          0.00000000	          0.00000000	          0.00000000	          0.00000000	          0.00000000	        -34.45995776	        848.63779213	        -36.74307007	          0.56759835	          0.00000000	          0.09652862	          0.00000000	          0.00000000	          0.00000000	          0.00000000	          1.03935154	          0.00000000	
          2.05100000	          0.00000000	          0.00000000	          0.00000000	          0.00000000	          0.00000000	          0.00000000	        -34.05099442	        846.86587177	        -36.65858877	          0.56779992	          0.00000000	          0.09659264	          0.00000000	          0.00000000	          0.00000000	          0.00000000	          0.97568754	          0.00000000	
          2.05200000	          0.00000000	          0.00000000	          0.00000000	          0.00000000	          0.00000000	          0.00000000	        -33.63944082	        845.20543824	        -36.61572017	          0.56798367	          0.00000000	          0.09665930	          0.00000000	          0.00000000	          0.00000000	          0.00000000	          0.90471820	          0.00000000	
          2.05300000	          0.00000000	          0.00000000	          0.00000000	          0.00000000	          0.00000000	          0.00000000	        -33.21792577	        843.58646922	        -36.61174828	          0.56819021	          0.00000000	          0.09671394	          0.00000000	          0.00000000	          0.00000000	          0.00000000	          0.83027437	          0.00000000	
          2.05400000	          0.00000000	          0.00000000	          0.00000000	          0.00000000	          0.00000000	          0.00000000	        -32.79166500	        841.95703315	        -36.63364336	          0.56844228	          0.00000000	          0.09675618	          0.00000000	          0.00000000	          0.00000000	          0.00000000	          0.75409526	          0.00000000	
          2.05500000	          0.00000000	          0.00000000	          0.00000000	          0.00000000	          0.00000000	          0.00000000	        -32.36870131	        840.31108758	        -36.66265361	          0.56872363	          0.00000000	          0.09679672	          0.00000000	          0.00000000	          0.00000000	          0.00000000	          0.67947955	          0.00000000	
          2.05600000	          0.00000000	          0.00000000	          0.00000000	          0.00000000	          0.00000000	          0.00000000	        -31.94753302	        838.68096009	        -36.68078113	          0.56900467	          0.00000000	          0.09684428	          0.00000000	          0.00000000	          0.00000000	          0.00000000	          0.61084256	          0.00000000	
          2.05700000	          0.00000000	          0.00000000	          0.00000000	          0.00000000	          0.00000000	          0.00000000	        -31.52419882	        837.11018132	        -36.67639366	          0.56927349	          0.00000000	          0.09690281	          0.00000000	          0.00000000	          0.00000000	          0.00000000	          0.54990175	          0.00000000	
          2.05800000	          0.00000000	          0.00000000	          0.00000000	          0.00000000	          0.00000000	          0.00000000	        -31.10337639	        835.62776771	        -36.64936609	          0.56953509	          0.00000000	          0.09697482	          0.00000000	          0.00000000	          0.00000000	          0.00000000	          0.49593702	          0.00000000	
          2.05900000	          0.00000000	          0.00000000	          0.00000000	          0.00000000	          0.00000000	          0.00000000	        -30.69219039	        834.22028856	        -36.61323642	          0.56979091	          0.00000000	          0.09706114	          0.00000000	          0.00000000	          0.00000000	          0.00000000	          0.44703707	          0.00000000	
          2.06000000	          0.00000000	          0.00000000	          0.00000000	          0.00000000	          0.00000000	          0.00000000	        -30.29107650	        832.82695148	        -36.58963772	          0.57003343	          0.00000000	          0.09715827	          0.00000000	          0.00000000	          0.00000000	          0.00000000	          0.39900584	          0.00000000	
          2.06100000	          0.00000000	          0.00000000	          0.00000000	          0.00000000	          0.00000000	          0.00000000	        -29.89541892	        831.39188485	        -36.59539460	          0.57026395	          0.00000000	          0.09725529	          0.00000000	          0.00000000	          0.00000000	          0.00000000	          0.34667042	          0.00000000	
          2.06200000	          0.00000000	          0.00000000	          0.00000000	          0.00000000	          0.00000000	          0.00000000	        -29.49905629	        829.90652203	        -36.63057589	          0.57049917	          0.00000000	          0.09733466	          0.00000000	          0.00000000	          0.00000000	          0.00000000	          0.28680064	          0.00000000	
